<svg xmlns="http://www.w3.org/2000/svg" xmlns:xlink="http://www.w3.org/1999/xlink" width="500" zoomAndPan="magnify" viewBox="0 0 375 374.999991" height="500" preserveAspectRatio="xMidYMid meet" version="1.0"><defs><g/><clipPath id="f36a3c2303"><path d="M 68.097656 86.644531 L 306.917969 86.644531 L 306.917969 191.335938 L 68.097656 191.335938 Z M 68.097656 86.644531 " clip-rule="nonzero"/></clipPath><clipPath id="65ce9207a0"><path d="M 120.441406 86.644531 L 254.558594 86.644531 C 268.441406 86.644531 281.757812 92.160156 291.574219 101.976562 C 301.390625 111.792969 306.902344 125.105469 306.902344 138.988281 C 306.902344 152.871094 301.390625 166.1875 291.574219 176.003906 C 281.757812 185.820312 268.441406 191.335938 254.558594 191.335938 L 120.441406 191.335938 C 106.558594 191.335938 93.242188 185.820312 83.425781 176.003906 C 73.609375 166.1875 68.097656 152.871094 68.097656 138.988281 C 68.097656 125.105469 73.609375 111.792969 83.425781 101.976562 C 93.242188 92.160156 106.558594 86.644531 120.441406 86.644531 Z M 120.441406 86.644531 " clip-rule="nonzero"/></clipPath><clipPath id="3cc2bd7d70"><path d="M 98.996094 112.222656 L 275.980469 112.222656 L 275.980469 167.253906 L 98.996094 167.253906 Z M 98.996094 112.222656 " clip-rule="nonzero"/></clipPath><clipPath id="a93ae9bd72"><path d="M 98.980469 105.003906 L 205 105.003906 L 205 138 L 98.980469 138 Z M 98.980469 105.003906 " clip-rule="nonzero"/></clipPath><clipPath id="17f6a17544"><path d="M 221.570312 121.296875 L 233.367188 121.296875 L 233.367188 133.089844 L 221.570312 133.089844 Z M 221.570312 121.296875 " clip-rule="nonzero"/></clipPath><clipPath id="268a4db207"><path d="M 227.46875 121.296875 C 224.210938 121.296875 221.570312 123.9375 221.570312 127.191406 C 221.570312 130.449219 224.210938 133.089844 227.46875 133.089844 C 230.726562 133.089844 233.367188 130.449219 233.367188 127.191406 C 233.367188 123.9375 230.726562 121.296875 227.46875 121.296875 Z M 227.46875 121.296875 " clip-rule="nonzero"/></clipPath><clipPath id="c9bd4dc606"><path d="M 209.773438 133.089844 L 221.570312 133.089844 L 221.570312 144.886719 L 209.773438 144.886719 Z M 209.773438 133.089844 " clip-rule="nonzero"/></clipPath><clipPath id="d24b080da4"><path d="M 215.671875 133.089844 C 212.414062 133.089844 209.773438 135.730469 209.773438 138.988281 C 209.773438 142.246094 212.414062 144.886719 215.671875 144.886719 C 218.929688 144.886719 221.570312 142.246094 221.570312 138.988281 C 221.570312 135.730469 218.929688 133.089844 215.671875 133.089844 Z M 215.671875 133.089844 " clip-rule="nonzero"/></clipPath><clipPath id="300f5e0bf6"><path d="M 221.570312 144.886719 L 233.367188 144.886719 L 233.367188 156.683594 L 221.570312 156.683594 Z M 221.570312 144.886719 " clip-rule="nonzero"/></clipPath><clipPath id="9bfaa0ab66"><path d="M 227.46875 144.886719 C 224.210938 144.886719 221.570312 147.527344 221.570312 150.785156 C 221.570312 154.042969 224.210938 156.683594 227.46875 156.683594 C 230.726562 156.683594 233.367188 154.042969 233.367188 150.785156 C 233.367188 147.527344 230.726562 144.886719 227.46875 144.886719 Z M 227.46875 144.886719 " clip-rule="nonzero"/></clipPath><clipPath id="24ef6bf2a7"><path d="M 233.367188 133.089844 L 245.164062 133.089844 L 245.164062 144.886719 L 233.367188 144.886719 Z M 233.367188 133.089844 " clip-rule="nonzero"/></clipPath><clipPath id="6505221fca"><path d="M 239.265625 133.089844 C 236.007812 133.089844 233.367188 135.730469 233.367188 138.988281 C 233.367188 142.246094 236.007812 144.886719 239.265625 144.886719 C 242.523438 144.886719 245.164062 142.246094 245.164062 138.988281 C 245.164062 135.730469 242.523438 133.089844 239.265625 133.089844 Z M 239.265625 133.089844 " clip-rule="nonzero"/></clipPath><clipPath id="2daaeb84b0"><path d="M 125.617188 119.113281 L 159.367188 119.113281 L 159.367188 152.863281 L 125.617188 152.863281 Z M 125.617188 119.113281 " clip-rule="nonzero"/></clipPath></defs><rect x="-37.5" width="450" fill="#ffffff" y="-37.499999" height="449.999989" fill-opacity="1"/><rect x="-37.5" width="450" fill="#000000" y="-37.499999" height="449.999989" fill-opacity="1"/><g clip-path="url(#f36a3c2303)"><g clip-path="url(#65ce9207a0)"><path fill="#ffffff" d="M 68.097656 86.644531 L 306.917969 86.644531 L 306.917969 191.335938 L 68.097656 191.335938 Z M 68.097656 86.644531 " fill-opacity="1" fill-rule="nonzero"/></g></g><g clip-path="url(#3cc2bd7d70)"><path fill="#000000" d="M 149.238281 112.308594 L 275.996094 112.308594 L 275.996094 117.089844 C 275.996094 144.839844 253.5 167.332031 225.75 167.332031 L 98.996094 167.332031 L 98.996094 162.554688 C 98.996094 134.804688 121.488281 112.308594 149.238281 112.308594 " fill-opacity="1" fill-rule="nonzero"/></g><g clip-path="url(#a93ae9bd72)"><path fill="#000000" d="M 129.058594 105.003906 L 204.90625 105.003906 L 204.90625 107.863281 C 204.90625 124.46875 191.445312 137.929688 174.84375 137.929688 L 98.996094 137.929688 L 98.996094 135.070312 C 98.996094 118.464844 112.457031 105.003906 129.058594 105.003906 " fill-opacity="1" fill-rule="nonzero"/></g><g clip-path="url(#17f6a17544)"><g clip-path="url(#268a4db207)"><path fill="#ffffff" d="M 221.570312 121.296875 L 233.367188 121.296875 L 233.367188 133.089844 L 221.570312 133.089844 Z M 221.570312 121.296875 " fill-opacity="1" fill-rule="nonzero"/></g></g><g clip-path="url(#c9bd4dc606)"><g clip-path="url(#d24b080da4)"><path fill="#ffffff" d="M 209.773438 133.089844 L 221.570312 133.089844 L 221.570312 144.886719 L 209.773438 144.886719 Z M 209.773438 133.089844 " fill-opacity="1" fill-rule="nonzero"/></g></g><g clip-path="url(#300f5e0bf6)"><g clip-path="url(#9bfaa0ab66)"><path fill="#ffffff" d="M 221.570312 144.886719 L 233.367188 144.886719 L 233.367188 156.683594 L 221.570312 156.683594 Z M 221.570312 144.886719 " fill-opacity="1" fill-rule="nonzero"/></g></g><g clip-path="url(#24ef6bf2a7)"><g clip-path="url(#6505221fca)"><path fill="#ffffff" d="M 233.367188 133.089844 L 245.164062 133.089844 L 245.164062 144.886719 L 233.367188 144.886719 Z M 233.367188 133.089844 " fill-opacity="1" fill-rule="nonzero"/></g></g><g clip-path="url(#2daaeb84b0)"><path fill="#ffffff" d="M 147.789062 128.496094 L 147.789062 119.113281 L 137.554688 119.113281 L 137.554688 128.496094 L 142.671875 133.613281 Z M 134.996094 131.054688 L 125.617188 131.054688 L 125.617188 141.289062 L 134.996094 141.289062 L 140.113281 136.171875 Z M 137.554688 143.847656 L 137.554688 153.226562 L 147.789062 153.226562 L 147.789062 143.847656 L 142.671875 138.730469 Z M 150.347656 131.054688 L 145.230469 136.171875 L 150.347656 141.289062 L 159.730469 141.289062 L 159.730469 131.054688 Z M 150.347656 131.054688 " fill-opacity="1" fill-rule="nonzero"/></g><g fill="#000000" fill-opacity="1"><g transform="translate(105.325756, 185.945599)"><g><path d="M 11.195312 0 L 13.679688 0 L 13.679688 -12.4375 L 11.195312 -12.4375 L 11.195312 -9.949219 L 8.707031 -9.949219 L 8.707031 -7.460938 L 11.195312 -7.460938 Z M 1.242188 0 L 3.730469 0 L 3.730469 -7.460938 L 6.21875 -7.460938 L 6.21875 -9.949219 L 3.730469 -9.949219 L 3.730469 -12.4375 L 1.242188 -12.4375 Z M 6.21875 -4.976562 L 8.707031 -4.976562 L 8.707031 -7.460938 L 6.21875 -7.460938 Z M 6.21875 -4.976562 "/></g></g></g><g fill="#000000" fill-opacity="1"><g transform="translate(121.510499, 185.945599)"><g><path d="M 1.242188 0 L 3.730469 0 L 3.730469 -2.488281 L 11.195312 -2.488281 L 11.195312 0 L 13.679688 0 L 13.679688 -9.949219 L 11.195312 -9.949219 L 11.195312 -4.976562 L 3.730469 -4.976562 L 3.730469 -9.949219 L 1.242188 -9.949219 Z M 3.730469 -9.949219 L 11.195312 -9.949219 L 11.195312 -12.4375 L 3.730469 -12.4375 Z M 3.730469 -9.949219 "/></g></g></g><g fill="#000000" fill-opacity="1"><g transform="translate(137.695242, 185.945599)"><g><path d="M 3.730469 0 L 13.679688 0 L 13.679688 -7.460938 L 6.21875 -7.460938 L 6.21875 -4.976562 L 11.195312 -4.976562 L 11.195312 -2.488281 L 3.730469 -2.488281 Z M 1.242188 -2.488281 L 3.730469 -2.488281 L 3.730469 -9.949219 L 1.242188 -9.949219 Z M 3.730469 -9.949219 L 13.679688 -9.949219 L 13.679688 -12.4375 L 3.730469 -12.4375 Z M 3.730469 -9.949219 "/></g></g></g><g fill="#000000" fill-opacity="1"><g transform="translate(153.879986, 185.945599)"><g><path d="M 1.242188 0 L 8.707031 0 L 8.707031 -2.488281 L 6.21875 -2.488281 L 6.21875 -9.949219 L 8.707031 -9.949219 L 8.707031 -12.4375 L 1.242188 -12.4375 L 1.242188 -9.949219 L 3.730469 -9.949219 L 3.730469 -2.488281 L 1.242188 -2.488281 Z M 1.242188 0 "/></g></g></g><g fill="#000000" fill-opacity="1"><g transform="translate(165.090337, 185.945599)"><g><path d="M 3.730469 -9.949219 L 1.242188 -9.949219 L 1.242188 -2.488281 L 3.730469 -2.488281 Z M 3.730469 0 L 13.679688 0 L 13.679688 -2.488281 L 3.730469 -2.488281 Z M 3.730469 -9.949219 L 13.679688 -9.949219 L 13.679688 -12.4375 L 3.730469 -12.4375 Z M 3.730469 -9.949219 "/></g></g></g><g fill="#000000" fill-opacity="1"><g transform="translate(181.27508, 185.945599)"><g/></g></g><g fill="#000000" fill-opacity="1"><g transform="translate(189.99823, 185.945599)"><g><path d="M 3.730469 0 L 13.679688 0 L 13.679688 -7.460938 L 6.21875 -7.460938 L 6.21875 -4.976562 L 11.195312 -4.976562 L 11.195312 -2.488281 L 3.730469 -2.488281 Z M 1.242188 -2.488281 L 3.730469 -2.488281 L 3.730469 -9.949219 L 1.242188 -9.949219 Z M 3.730469 -9.949219 L 13.679688 -9.949219 L 13.679688 -12.4375 L 3.730469 -12.4375 Z M 3.730469 -9.949219 "/></g></g></g><g fill="#000000" fill-opacity="1"><g transform="translate(206.182967, 185.945599)"><g><path d="M 3.730469 0 L 13.679688 0 L 13.679688 -2.488281 L 3.730469 -2.488281 Z M 1.242188 -2.488281 L 3.730469 -2.488281 L 3.730469 -12.4375 L 1.242188 -12.4375 Z M 1.242188 -2.488281 "/></g></g></g><g fill="#000000" fill-opacity="1"><g transform="translate(222.367704, 185.945599)"><g><path d="M 1.242188 0 L 3.730469 0 L 3.730469 -2.488281 L 11.195312 -2.488281 L 11.195312 0 L 13.679688 0 L 13.679688 -9.949219 L 11.195312 -9.949219 L 11.195312 -4.976562 L 3.730469 -4.976562 L 3.730469 -9.949219 L 1.242188 -9.949219 Z M 3.730469 -9.949219 L 11.195312 -9.949219 L 11.195312 -12.4375 L 3.730469 -12.4375 Z M 3.730469 -9.949219 "/></g></g></g><g fill="#000000" fill-opacity="1"><g transform="translate(238.552441, 185.945599)"><g><path d="M 3.730469 -9.949219 L 1.242188 -9.949219 L 1.242188 -7.460938 L 3.730469 -7.460938 Z M 1.242188 0 L 11.195312 0 L 11.195312 -2.488281 L 1.242188 -2.488281 Z M 3.730469 -4.976562 L 11.195312 -4.976562 L 11.195312 -7.460938 L 3.730469 -7.460938 Z M 3.730469 -9.949219 L 13.679688 -9.949219 L 13.679688 -12.4375 L 3.730469 -12.4375 Z M 11.195312 -2.488281 L 13.679688 -2.488281 L 13.679688 -4.976562 L 11.195312 -4.976562 Z M 11.195312 -2.488281 "/></g></g></g><g fill="#000000" fill-opacity="1"><g transform="translate(254.737178, 185.945599)"><g><path d="M 3.730469 -9.949219 L 1.242188 -9.949219 L 1.242188 -7.460938 L 3.730469 -7.460938 Z M 1.242188 0 L 11.195312 0 L 11.195312 -2.488281 L 1.242188 -2.488281 Z M 3.730469 -4.976562 L 11.195312 -4.976562 L 11.195312 -7.460938 L 3.730469 -7.460938 Z M 3.730469 -9.949219 L 13.679688 -9.949219 L 13.679688 -12.4375 L 3.730469 -12.4375 Z M 11.195312 -2.488281 L 13.679688 -2.488281 L 13.679688 -4.976562 L 11.195312 -4.976562 Z M 11.195312 -2.488281 "/></g></g></g></svg>